<?xml version="1.0" standalone="no"?>
<!DOCTYPE svg PUBLIC "-//W3C//DTD SVG 20010904//EN"
 "http://www.w3.org/TR/2001/REC-SVG-20010904/DTD/svg10.dtd">
<svg version="1.0" xmlns="http://www.w3.org/2000/svg"
 width="16.000000pt" height="16.000000pt" viewBox="0 0 16.000000 16.000000"
 preserveAspectRatio="xMidYMid meet">
<metadata>
Created by potrace 1.11, written by Peter Selinger 2001-2013
</metadata>
<g transform="translate(0.000000,16.000000) scale(0.004188,-0.004188)"
fill="#000000" stroke="none">
<path d="M1755 3674 c-16 -2 -66 -9 -110 -15 -437 -58 -868 -312 -1139 -673
-408 -543 -469 -1269 -156 -1865 263 -499 729 -831 1295 -922 103 -17 407 -17
510 0 566 91 1032 423 1295 922 135 258 194 503 194 809 0 96 -6 211 -13 255
-123 765 -693 1342 -1451 1471 -84 15 -366 26 -425 18z m-5 -1661 c0 -109 4
-204 9 -212 5 -8 16 -11 24 -8 17 6 41 -15 30 -26 -15 -16 -72 -7 -83 12 -11
22 -14 413 -3 424 19 20 23 -10 23 -190z m-1177 140 c8 -16 38 -96 68 -180 29
-83 56 -150 60 -148 3 2 32 77 64 167 59 165 77 200 94 183 11 -12 94 -406 87
-413 -19 -19 -35 22 -65 177 -18 94 -35 171 -36 171 -2 0 -31 -79 -66 -175
-48 -136 -66 -175 -80 -175 -17 0 -28 26 -111 261 -17 50 -32 88 -33 87 -2 -2
-17 -75 -35 -163 -18 -88 -37 -166 -42 -172 -14 -18 -63 -16 -78 2 -14 17 0
26 34 22 17 -2 23 18 56 175 20 97 40 183 43 192 9 24 25 19 40 -11z m1375 4
c4 -20 -25 -34 -40 -19 -15 15 -1 44 19 40 10 -2 19 -11 21 -21z m135 10 c8
-20 -9 -41 -27 -34 -23 9 -21 47 3 47 10 0 21 -6 24 -13z m1095 -10 c4 -20
-25 -34 -40 -19 -15 15 -1 44 19 40 10 -2 19 -11 21 -21z m135 9 c9 -22 -19
-42 -37 -26 -19 15 -10 40 14 40 10 0 20 -6 23 -14z m-2063 -237 c0 -136 1
-141 20 -136 20 5 45 -15 33 -26 -12 -13 -56 -7 -74 9 -16 14 -20 14 -43 -1
-35 -23 -99 -21 -135 5 -55 38 -72 159 -31 224 29 48 72 66 158 66 l72 0 0
-141z m350 0 c0 -136 1 -141 20 -136 20 5 45 -15 33 -26 -12 -13 -56 -7 -74 9
-16 14 -20 14 -43 -1 -35 -23 -99 -21 -135 5 -55 38 -72 159 -31 224 29 48 72
66 158 66 l72 0 0 -141z m510 0 c0 -136 1 -141 20 -136 20 5 45 -15 33 -26
-12 -13 -56 -7 -74 9 -16 14 -20 14 -43 -1 -35 -23 -99 -21 -135 5 -55 38 -72
159 -31 224 29 48 72 66 158 66 l72 0 0 -141z m317 114 c17 -16 29 -21 31 -14
6 17 57 41 87 41 70 0 95 -48 95 -186 0 -91 1 -96 20 -91 20 5 45 -15 33 -26
-3 -4 -21 -7 -39 -7 -46 0 -54 20 -54 141 0 109 -11 139 -52 139 -27 0 -74
-26 -82 -45 -3 -9 -6 -66 -6 -126 0 -102 -1 -109 -20 -109 -18 0 -20 8 -22
127 -3 127 -3 127 -31 143 -25 14 -30 13 -65 -5 l-37 -20 -3 -123 c-2 -113 -4
-122 -22 -122 -18 0 -19 10 -22 133 -2 72 -7 140 -12 150 -12 25 20 22 34 -3
11 -21 11 -21 41 5 41 34 91 34 126 -2z m521 7 c45 -28 65 -79 60 -152 -7 -97
-55 -141 -154 -139 l-54 0 0 -79 c0 -73 -2 -80 -20 -80 -18 0 -19 9 -22 213
-2 116 -7 220 -12 230 -11 23 19 23 33 0 9 -16 11 -16 28 -2 39 34 94 38 141
9z m350 0 c47 -29 72 -76 72 -135 0 -95 -57 -157 -144 -157 -105 0 -169 86
-144 194 22 99 132 149 216 98z"/>
<path d="M1093 2030 c-54 -22 -78 -114 -49 -185 25 -59 97 -75 141 -30 23 22
25 32 25 118 0 77 -3 96 -16 101 -22 9 -75 6 -101 -4z"/>
<path d="M1443 2030 c-54 -22 -78 -114 -49 -185 25 -59 97 -75 141 -30 23 22
25 32 25 118 0 77 -3 96 -16 101 -22 9 -75 6 -101 -4z"/>
<path d="M1953 2030 c-54 -22 -78 -114 -49 -185 25 -59 97 -75 141 -30 23 22
25 32 25 118 0 77 -3 96 -16 101 -22 9 -75 6 -101 -4z"/>
<path d="M2845 2028 c-39 -21 -45 -39 -45 -140 l0 -98 56 0 c48 0 60 4 84 28
88 88 7 266 -95 210z"/>
<path d="M3173 2025 c-71 -31 -86 -152 -24 -207 58 -52 147 -33 177 38 29 69
5 146 -52 170 -41 17 -60 17 -101 -1z"/>
</g>
</svg>
